<?xml version="1.0" encoding="UTF-8"?>
<!DOCTYPE svg PUBLIC "-//W3C//DTD SVG 1.1//EN" "http://www.w3.org/Graphics/SVG/1.1/DTD/svg11.dtd">
<!-- Creator: CorelDRAW 2019 (64-Bit) -->
<svg xmlns="http://www.w3.org/2000/svg" xml:space="preserve" width="41.7833mm" height="5.8686mm" version="1.1" style="shape-rendering:geometricPrecision; text-rendering:geometricPrecision; image-rendering:optimizeQuality; fill-rule:evenodd; clip-rule:evenodd"
viewBox="0 0 3913.85 549.71"
 xmlns:xlink="http://www.w3.org/1999/xlink">
 <defs>
  <style type="text/css">
   <![CDATA[
    .fil1 {fill:#FEFEFE;fill-rule:nonzero}
    .fil2 {fill:#FEFEFE;fill-rule:nonzero}
    .fil0 {fill:#DDAA1C;fill-rule:nonzero}
   ]]>
  </style>
 </defs>
 <g id="Слой_x0020_1">
  <metadata id="CorelCorpID_0Corel-Layer"/>
  <g id="_1032485344">
   <path class="fil0" d="M523.12 442.25l-334.25 0c-61.13,0 -111.03,-49.73 -111.16,-110.86 0.13,-61.2 50.03,-110.93 111.16,-110.93l334.25 0 0 14.34 -334.25 0c-53.27,0 -96.69,43.32 -96.86,96.59 0.17,53.2 43.58,96.52 96.86,96.52l334.25 0 0 14.34z"/>
   <path class="fil0" d="M523.12 519.83l-334.25 0c-101.34,0 -184.48,-80.57 -188.59,-181.02l-0.16 0 -0.04 -7.4 0 -0.13 0 -0.23 0.2 -7.18c4.1,-100.45 87.24,-181.02 188.59,-181.02l334.25 0 0 14.34 -334.25 0c-95.86,0 -174.11,78.02 -174.44,173.88l0 0.4 0 0.16c0.33,95.86 78.58,173.85 174.44,173.85l334.25 0 0 14.34z"/>
   <path class="fil0" d="M523.21 480.59l-335.73 0c-82.38,0 -149.43,-67.01 -149.43,-149.39 0,-82.38 67.05,-149.39 149.43,-149.39l335.56 0 0 14.34 -335.56 0c-74.49,0 -135.05,60.6 -135.05,135.05 0,74.45 60.57,135.05 135.05,135.05l335.73 0 0 14.34z"/>
   <path class="fil0" d="M619.54 331.6c41.86,-36.05 66.78,-87.6 66.78,-142.82 0,-104.12 -85.78,-188.78 -189.91,-188.78l-496.33 0 0 14.3 496.33 0c96.23,0 175.57,78.28 175.57,174.48 0,53.73 -25.54,103.72 -68.16,137.17l-7.18 5.65 7.18 5.65c42.62,33.44 67.08,83.4 67.08,137.13l-0.07 45.61 14.3 0.03 0.07 -45.6c0,-55.26 -23.79,-106.8 -65.65,-142.82z"/>
   <path class="fil0" d="M593.31 188.77c0,53.4 -43.45,96.89 -96.89,96.89l-335.37 0 0 14.3 335.37 0c61.36,0 111.23,-49.9 111.23,-111.2 0,-61.3 -49.87,-111.2 -111.23,-111.2l-496.26 0 0 14.31 496.26 0c53.44,0 96.89,43.48 96.89,96.88z"/>
   <path class="fil0" d="M632.61 189.78c0,75.25 -56.54,136.51 -131.78,136.51l-339.76 0 0 14.31 339.76 0c83.14,0 146.16,-67.61 146.16,-150.82 0,-83.17 -63.02,-150.82 -146.16,-150.82l-500.83 0 0 14.34 500.83 -0.03c75.25,0 131.78,61.26 131.78,136.51z"/>
   <path class="fil0" d="M496.43 363.23l-335.38 0 0 14.34 335.38 0c53.4,0 96.88,43.45 96.88,96.86l0 45.61 14.31 0 0 -45.61c0,-61.3 -49.87,-111.2 -111.2,-111.2z"/>
   <path class="fil0" d="M574.42 344.22c-5.85,2.94 -11.79,5.58 -18,7.87 43.05,14.84 75.4,63.81 75.27,112.95l0 54.98 14.37 0 0 -54.98c0,-50.3 -27.45,-96.63 -71.64,-120.82z"/>
   <path class="fil1" d="M1033.08 107.5l185.55 0c7.96,0 14.38,0.76 18.93,2.24 4.33,1.42 7.67,3.24 9.88,5.32 2.12,2.02 3.48,4.3 4.17,7.04 0.92,3.37 1.35,6.97 1.35,10.77 0,3.77 -0.43,7.37 -1.32,10.73 -0.72,2.74 -2.08,5.03 -4.16,7.04 -2.25,2.12 -5.59,3.9 -9.88,5.32 -4.56,1.49 -10.97,2.25 -18.97,2.25l-185.55 0 0 -50.72zm236.73 107.59c11.97,-5.02 21.88,-11.79 29.45,-20.12 7.5,-8.26 13.05,-18.01 16.55,-29.05 3.37,-10.74 5.12,-22.47 5.12,-34.93 0,-12.43 -1.82,-24.35 -5.32,-35.43 -3.63,-11.36 -9.58,-21.35 -17.68,-29.67 -8.07,-8.29 -18.68,-14.97 -31.43,-19.79 -12.59,-4.8 -28.09,-7.2 -45.94,-7.2l-253.15 0 0 274.97 65.65 0 0 -89.39 112.62 0 120.82 89.39 107.89 0 -129.71 -91.97c9.32,-1.42 17.68,-3.67 25.11,-6.81z"/>
   <polygon class="fil1" points="1421.9,313.86 1763.86,313.86 1763.86,245.26 1487.54,245.26 1487.54,207.16 1730.38,207.16 1730.38,145.56 1487.54,145.56 1487.54,107.5 1763.86,107.5 1763.86,38.89 1421.9,38.89 "/>
   <path class="fil1" d="M1910.55 49.63c-18.77,7.14 -34.26,17.15 -46.1,29.65 -11.76,12.52 -20.42,27.39 -25.68,44.15 -5.19,16.46 -7.8,34.3 -7.8,52.97 0,18.64 2.61,36.45 7.8,52.9 5.25,16.79 13.91,31.66 25.68,44.15 11.83,12.52 27.32,22.51 46.1,29.71 18.6,7.1 41.53,10.71 68.14,10.71l204.65 0 0 -68.6 -204.65 0c-16.65,0 -30.24,-1.88 -40.34,-5.49 -9.88,-3.53 -17.78,-8.39 -23.46,-14.47 -5.62,-6.01 -9.48,-13.15 -11.53,-21.24 -2.15,-8.66 -3.24,-17.95 -3.24,-27.66 0,-9.71 1.1,-19.03 3.24,-27.69 2.05,-8.1 5.91,-15.24 11.53,-21.25 5.69,-6.08 13.58,-10.93 23.46,-14.47 10.11,-3.6 23.69,-5.48 40.34,-5.48l204.65 0 0 -68.6 -204.65 0c-26.56,0 -49.5,3.6 -68.14,10.73z"/>
   <path class="fil1" d="M2377.27 205.47l65.9 -96.26 66.19 96.26 -132.08 0zm34.8 -166.58l-189.8 274.97 80.75 0 31.96 -46.79 216.73 0 32.35 46.79 80.37 0 -189.81 -274.97 -62.55 0z"/>
   <path class="fil1" d="M2784.42 207.17l200.18 0c6.18,0 11.2,0.64 14.94,1.79 3.33,1.09 5.85,2.44 7.37,4 1.48,1.52 2.47,3.2 2.94,5.19 0.66,2.6 0.98,5.41 0.98,8.29 0,2.88 -0.29,5.55 -0.96,7.96 -0.46,1.88 -1.45,3.54 -2.97,5.06 -1.53,1.55 -4.04,2.88 -7.37,4 -3.74,1.19 -8.76,1.78 -14.94,1.78l-200.18 0 0 -38.07zm210.86 -88.82c0.59,2.41 0.93,5.09 0.93,7.96 0,2.9 -0.34,5.69 -0.96,8.26 -0.5,1.99 -1.45,3.7 -2.94,5.22 -1.58,1.59 -3.99,2.94 -7.27,4 -3.53,1.19 -8.49,1.79 -14.67,1.79l-185.94 0 0 -38.11 185.55 0c6.24,0 11.27,0.63 14.93,1.82 3.33,1.06 5.82,2.42 7.4,4 1.53,1.52 2.48,3.18 2.98,5.06zm45.17 51.09c6.64,-5.45 11.83,-11.93 15.57,-19.44 5.42,-11 8.16,-23.39 8.16,-36.81 0,-10.24 -1.32,-19.89 -3.9,-28.75 -2.74,-9.18 -7.4,-17.31 -13.84,-24.12 -6.41,-6.74 -14.81,-12.13 -24.95,-15.9 -9.94,-3.66 -22.11,-5.55 -36.11,-5.55l-266.61 0 0 275 280.46 0c14.57,0 27.16,-1.95 37.47,-5.79 10.55,-3.96 19.16,-9.54 25.65,-16.72 6.38,-7.07 11.03,-15.36 13.87,-24.68 2.74,-9.02 4.13,-18.8 4.13,-29.01 0,-17.09 -4.09,-32.22 -12.16,-45.07 -6.28,-10.01 -15.56,-17.78 -27.73,-23.16z"/>
   <polygon class="fil1" points="3229.66,38.88 3164,38.88 3164,313.85 3499.41,313.85 3499.41,245.25 3229.66,245.25 "/>
   <polygon class="fil1" points="3913.85,107.5 3913.85,38.89 3571.91,38.89 3571.91,313.86 3913.85,313.86 3913.85,245.26 3637.56,245.26 3637.56,207.19 3880.37,207.19 3880.37,145.56 3637.56,145.56 3637.56,107.5 "/>
   <path class="fil2" d="M1016.01 521.48c-10.73,0 -20.39,-2.36 -29,-7.06 -8.6,-4.7 -15.35,-11.21 -20.26,-19.51 -4.91,-8.3 -7.36,-17.55 -7.36,-27.77 0,-10.23 2.45,-19.48 7.36,-27.78 4.91,-8.3 11.66,-14.81 20.26,-19.51 8.61,-4.7 18.27,-7.06 29,-7.06 10.62,0 20.24,2.36 28.84,7.06 8.6,4.7 15.33,11.18 20.2,19.44 4.85,8.24 7.29,17.53 7.29,27.86 0,10.32 -2.44,19.61 -7.29,27.86 -4.86,8.24 -11.6,14.72 -20.2,19.43 -8.6,4.7 -18.22,7.06 -28.84,7.06zm0 -13.52c7.79,0 14.8,-1.77 21.02,-5.31 6.23,-3.54 11.14,-8.43 14.73,-14.65 3.59,-6.22 5.39,-13.18 5.39,-20.87 0,-7.7 -1.8,-14.65 -5.39,-20.88 -3.6,-6.22 -8.51,-11.11 -14.73,-14.65 -6.22,-3.54 -13.23,-5.31 -21.02,-5.31 -7.79,0 -14.86,1.77 -21.18,5.31 -6.32,3.54 -11.29,8.43 -14.87,14.65 -3.6,6.23 -5.4,13.18 -5.4,20.88 0,7.69 1.8,14.65 5.4,20.87 3.59,6.22 8.55,11.11 14.87,14.65 6.32,3.54 13.39,5.31 21.18,5.31zm119.48 -65.43c7.49,0 14.17,1.67 20.04,5.01 5.87,3.33 10.45,7.97 13.74,13.89 3.29,5.92 4.94,12.67 4.94,20.26 0,7.79 -1.74,14.71 -5.24,20.73 -3.49,6.02 -8.4,10.7 -14.72,14.04 -6.33,3.33 -13.54,5.01 -21.64,5.01 -13.66,0 -24.21,-4.68 -31.65,-14.04 -7.44,-9.37 -11.16,-22.55 -11.16,-39.55 0,-16.5 3.39,-29.43 10.17,-38.79 6.78,-9.37 17.15,-15.57 31.12,-18.6l36.74 -8.2 2.13 13.36 -33.85 7.29c-10.53,2.33 -18.37,6.28 -23.53,11.84 -5.16,5.57 -8.09,13.56 -8.81,23.99 3.44,-5.16 7.9,-9.16 13.36,-11.99 5.47,-2.84 11.59,-4.25 18.37,-4.25zm-2.58 66.8c5.16,0 9.74,-1.16 13.73,-3.49 4,-2.32 7.11,-5.54 9.34,-9.64 2.23,-4.09 3.34,-8.78 3.34,-14.04 0,-8 -2.44,-14.43 -7.29,-19.28 -4.86,-4.86 -11.24,-7.29 -19.13,-7.29 -7.9,0 -14.3,2.43 -19.21,7.29 -4.91,4.85 -7.36,11.28 -7.36,19.28 0,5.26 1.14,9.95 3.42,14.04 2.28,4.1 5.44,7.32 9.49,9.64 4.05,2.33 8.6,3.49 13.67,3.49zm106.57 -42.36c9.92,0 17.54,2.3 22.85,6.91 5.31,4.6 7.97,11.05 7.97,19.35 0,8.61 -2.91,15.26 -8.73,19.96 -5.82,4.71 -14.04,7.06 -24.66,7.06l-33.86 0 0 -67.7 -24.59 0 0 -12.76 39.16 0 0 27.17 21.86 0zm-3.03 42.21c6.28,0 11.03,-1.37 14.27,-4.1 3.24,-2.73 4.86,-6.78 4.86,-12.14 0,-5.16 -1.59,-8.98 -4.79,-11.47 -3.18,-2.48 -7.96,-3.72 -14.34,-3.72l-18.83 0 0 31.43 18.83 0zm125.24 -28.69c0,1.11 -0.09,2.58 -0.3,4.4l-65.28 0c0.91,7.08 4.02,12.78 9.34,17.08 5.31,4.3 11.91,6.45 19.81,6.45 9.61,0 17.36,-3.24 23.22,-9.71l8.05 9.4c-3.64,4.25 -8.17,7.49 -13.58,9.72 -5.41,2.22 -11.47,3.33 -18.14,3.33 -8.5,0 -16.04,-1.74 -22.62,-5.24 -6.58,-3.49 -11.66,-8.37 -15.26,-14.65 -3.59,-6.28 -5.39,-13.36 -5.39,-21.25 0,-7.79 1.74,-14.83 5.24,-21.1 3.49,-6.28 8.3,-11.16 14.43,-14.65 6.13,-3.48 13.03,-5.24 20.72,-5.24 7.69,0 14.55,1.75 20.57,5.24 6.02,3.49 10.73,8.37 14.12,14.65 3.39,6.28 5.09,13.46 5.09,21.56zm-39.77 -29.15c-6.98,0 -12.82,2.13 -17.54,6.38 -4.7,4.25 -7.47,9.82 -8.27,16.69l51.61 0c-0.81,-6.77 -3.57,-12.32 -8.27,-16.62 -4.7,-4.3 -10.55,-6.45 -17.54,-6.45zm142.86 56.17l0 31.42 -13.67 0 0 -18.67 -67.26 0 0 18.67 -13.81 0 0 -31.42 4.24 0c5.16,-0.31 8.71,-3.95 10.63,-10.93 1.92,-6.99 3.24,-16.85 3.94,-29.61l1.22 -27.17 62.39 0 0 67.71 12.3 0zm-62.54 -39.47c-0.41,10.12 -1.25,18.49 -2.51,25.12 -1.26,6.63 -3.57,11.41 -6.9,14.35l45.08 0 0 -54.96 -34.91 0 -0.76 15.48zm81.51 -28.24l14.58 0 0 58.6 49.34 -58.6 13.21 0 0 80.46 -14.57 0 0 -58.6 -49.2 58.6 -13.36 0 0 -80.46zm105.36 0l14.58 0 0 34.16 45.85 0 0 -34.16 14.58 0 0 80.46 -14.58 0 0 -33.7 -45.85 0 0 33.7 -14.58 0 0 -80.46zm103.38 0l14.58 0 0 58.6 49.34 -58.6 13.21 0 0 80.46 -14.57 0 0 -58.6 -49.2 58.6 -13.36 0 0 -80.46zm198.12 0l0 80.46 -13.21 0 0 -58.75 -30.06 49.65 -6.38 0 -29.76 -49.8 0 58.9 -13.36 0 0 -80.46 15.03 0 31.58 54.35 32.48 -54.35 13.67 0zm124.03 38.71c10.43,2.63 15.63,9.16 15.63,19.59 0,7.08 -2.65,12.55 -7.97,16.39 -5.31,3.85 -13.23,5.77 -23.75,5.77l-38.71 0 0 -80.46 37.35 0c9.52,0 16.95,1.8 22.32,5.4 5.36,3.59 8.05,8.67 8.05,15.25 0,4.25 -1.14,7.92 -3.42,11.01 -2.28,3.09 -5.44,5.44 -9.49,7.06zm-40.53 -4.1l21.86 0c5.56,0 9.79,-1.01 12.67,-3.03 2.89,-2.02 4.33,-4.96 4.33,-8.81 0,-7.69 -5.67,-11.53 -17,-11.53l-21.86 0 0 23.37zm23.38 34.62c6.07,0 10.62,-0.96 13.66,-2.89 3.03,-1.93 4.55,-4.91 4.55,-8.95 0,-4.15 -1.39,-7.24 -4.17,-9.26 -2.78,-2.02 -7.17,-3.03 -13.13,-3.03l-24.29 0 0 24.14 23.38 0zm128.27 -28.54c0,1.11 -0.09,2.58 -0.3,4.4l-65.28 0c0.91,7.08 4.02,12.78 9.34,17.08 5.31,4.3 11.91,6.45 19.81,6.45 9.61,0 17.36,-3.24 23.22,-9.71l8.05 9.4c-3.64,4.25 -8.17,7.49 -13.58,9.72 -5.41,2.22 -11.47,3.33 -18.14,3.33 -8.5,0 -16.04,-1.74 -22.62,-5.24 -6.58,-3.49 -11.66,-8.37 -15.26,-14.65 -3.59,-6.28 -5.39,-13.36 -5.39,-21.25 0,-7.79 1.74,-14.83 5.24,-21.1 3.49,-6.28 8.3,-11.16 14.43,-14.65 6.13,-3.48 13.03,-5.24 20.72,-5.24 7.69,0 14.55,1.75 20.57,5.24 6.02,3.49 10.73,8.37 14.12,14.65 3.39,6.28 5.09,13.46 5.09,21.56zm-39.77 -29.15c-6.98,0 -12.82,2.13 -17.54,6.38 -4.7,4.25 -7.47,9.82 -8.27,16.69l51.61 0c-0.81,-6.77 -3.57,-12.32 -8.27,-16.62 -4.7,-4.3 -10.55,-6.45 -17.54,-6.45zm97.46 69.83c-8.2,0 -15.51,-1.77 -21.94,-5.31 -6.43,-3.54 -11.46,-8.42 -15.1,-14.65 -3.64,-6.22 -5.47,-13.28 -5.47,-21.18 0,-7.9 1.83,-14.95 5.47,-21.18 3.64,-6.22 8.67,-11.08 15.1,-14.58 6.43,-3.48 13.74,-5.24 21.94,-5.24 7.29,0 13.79,1.47 19.51,4.4 5.71,2.94 10.14,7.18 13.28,12.76l-11.08 7.13c-2.53,-3.84 -5.67,-6.73 -9.41,-8.65 -3.75,-1.93 -7.9,-2.89 -12.45,-2.89 -5.26,0 -9.99,1.16 -14.19,3.48 -4.21,2.33 -7.49,5.65 -9.87,9.95 -2.38,4.3 -3.57,9.24 -3.57,14.8 0,5.67 1.19,10.65 3.57,14.96 2.38,4.3 5.67,7.62 9.87,9.94 4.2,2.33 8.93,3.49 14.19,3.49 4.55,0 8.7,-0.96 12.45,-2.89 3.75,-1.92 6.88,-4.81 9.41,-8.66l11.08 6.99c-3.14,5.56 -7.57,9.84 -13.28,12.82 -5.72,2.99 -12.22,4.48 -19.51,4.48zm88.81 -54.04c10.22,0.09 18.01,2.43 23.38,6.98 5.36,4.55 8.05,10.98 8.05,19.28 0,8.71 -2.91,15.41 -8.73,20.12 -5.82,4.7 -14.14,7.01 -24.97,6.9l-34.92 -0.15 0 -80.46 14.58 0 0 27.17 22.62 0.16zm-3.49 42.2c6.59,0.1 11.57,-1.22 14.96,-3.94 3.39,-2.74 5.09,-6.78 5.09,-12.15 0,-5.26 -1.65,-9.1 -4.94,-11.54 -3.29,-2.43 -8.33,-3.69 -15.11,-3.79l-19.13 -0.3 0 31.58 19.13 0.15zm187.19 -69.53l0 80.46 -13.21 0 0 -58.75 -30.06 49.65 -6.38 0 -29.76 -49.8 0 58.9 -13.36 0 0 -80.46 15.03 0 31.58 54.35 32.48 -54.35 13.67 0zm28.38 0l14.58 0 0 58.6 49.34 -58.6 13.21 0 0 80.46 -14.57 0 0 -58.6 -49.2 58.6 -13.36 0 0 -80.46zm148.02 -0.76c7.79,0 14.78,1.72 20.95,5.16 6.17,3.45 11.01,8.25 14.5,14.43 3.49,6.17 5.24,13.31 5.24,21.4 0,8.1 -1.74,15.26 -5.24,21.48 -3.49,6.23 -8.33,11.06 -14.5,14.5 -6.17,3.45 -13.16,5.16 -20.95,5.16 -5.76,0 -11.05,-1.11 -15.86,-3.33 -4.81,-2.23 -8.88,-5.47 -12.22,-9.72l0 41.6 -14.58 0 0 -109.91 13.97 0 0 12.76c3.24,-4.46 7.34,-7.82 12.3,-10.1 4.96,-2.28 10.43,-3.42 16.39,-3.42zm-1.21 69.38c5.16,0 9.79,-1.19 13.89,-3.57 4.09,-2.38 7.33,-5.71 9.71,-10.02 2.38,-4.3 3.57,-9.24 3.57,-14.8 0,-5.56 -1.19,-10.5 -3.57,-14.8 -2.38,-4.3 -5.62,-7.62 -9.71,-9.95 -4.1,-2.32 -8.73,-3.48 -13.89,-3.48 -5.06,0 -9.64,1.19 -13.74,3.57 -4.1,2.37 -7.33,5.69 -9.71,9.94 -2.38,4.25 -3.57,9.16 -3.57,14.72 0,5.56 1.16,10.5 3.49,14.8 2.32,4.31 5.56,7.64 9.71,10.02 4.15,2.38 8.76,3.57 13.82,3.57z"/>
  </g>
 </g>
</svg>
