<?xml version="1.0" encoding="UTF-8"?>
<!DOCTYPE svg PUBLIC "-//W3C//DTD SVG 1.1//EN" "http://www.w3.org/Graphics/SVG/1.1/DTD/svg11.dtd">
<!-- Creator: CorelDRAW 2019 (64-Bit) -->
<svg xmlns="http://www.w3.org/2000/svg" xml:space="preserve" width="41.7833mm" height="5.5517mm" version="1.1" style="shape-rendering:geometricPrecision; text-rendering:geometricPrecision; image-rendering:optimizeQuality; fill-rule:evenodd; clip-rule:evenodd"
viewBox="0 0 4208.52 559.18"
 xmlns:xlink="http://www.w3.org/1999/xlink">
 <defs>
  <style type="text/css">
   <![CDATA[
    .fil1 {fill:#FEFEFE;fill-rule:nonzero}
    .fil0 {fill:#DDAA1C;fill-rule:nonzero}
   ]]>
  </style>
 </defs>
 <g id="Слой_x0020_1">
  <metadata id="CorelCorpID_0Corel-Layer"/>
  <path class="fil0" d="M562.5 475.55l-359.42 0c-65.73,0 -119.39,-53.47 -119.53,-119.21 0.14,-65.81 53.8,-119.29 119.53,-119.29l359.42 0 0 15.42 -359.42 0c-57.28,0 -103.97,46.58 -104.15,103.86 0.18,57.2 46.87,103.78 104.15,103.78l359.42 0 0 15.42z"/>
  <path class="fil0" d="M562.5 558.97l-359.42 0c-108.97,0 -198.37,-86.63 -202.78,-194.65l-0.17 0 -0.04 -7.96 0 -0.14 0 -0.25 0.21 -7.72c4.41,-108.01 93.81,-194.65 202.78,-194.65l359.42 0 0 15.42 -359.42 0c-103.08,0 -187.22,83.89 -187.58,186.97l0 0.43 0 0.17c0.35,103.08 84.5,186.94 187.58,186.94l359.42 0 0 15.42z"/>
  <path class="fil0" d="M562.61 516.78l-361.01 0c-88.59,0 -160.68,-72.06 -160.68,-160.64 0,-88.59 72.1,-160.64 160.68,-160.64l360.83 0 0 15.42 -360.83 0c-80.09,0 -145.22,65.17 -145.22,145.22 0,80.05 65.13,145.22 145.22,145.22l361.01 0 0 15.42z"/>
  <path class="fil0" d="M666.19 356.57c45.01,-38.77 71.81,-94.2 71.81,-153.57 0,-111.96 -92.24,-203 -204.2,-203l-533.7 0 0 15.38 533.7 0c103.47,0 188.78,84.17 188.78,187.62 0,57.77 -27.47,111.53 -73.3,147.5l-7.72 6.07 7.72 6.07c45.83,35.96 72.13,89.68 72.13,147.46l-0.07 49.04 15.38 0.03 0.07 -49.03c0,-59.42 -25.58,-114.84 -70.6,-153.57z"/>
  <path class="fil0" d="M637.98 202.99c0,57.42 -46.73,104.19 -104.19,104.19l-360.62 0 0 15.38 360.62 0c65.98,0 119.61,-53.65 119.61,-119.57 0,-65.91 -53.62,-119.57 -119.61,-119.57l-533.63 0 0 15.39 533.63 0c57.46,0 104.19,46.76 104.19,104.18z"/>
  <path class="fil0" d="M680.24 204.06c0,80.91 -60.8,146.78 -141.71,146.78l-365.34 0 0 15.39 365.34 0c89.4,0 157.17,-72.7 157.17,-162.17 0,-89.43 -67.77,-162.17 -157.17,-162.17l-538.53 0 0 15.42 538.53 -0.03c80.91,0 141.71,65.87 141.71,146.78z"/>
  <path class="fil0" d="M533.81 390.57l-360.63 0 0 15.42 360.63 0c57.42,0 104.18,46.73 104.18,104.15l0 49.04 15.39 0 0 -49.04c0,-65.91 -53.62,-119.57 -119.57,-119.57z"/>
  <path class="fil0" d="M617.67 370.13c-6.29,3.16 -12.68,6 -19.36,8.46 46.29,15.95 81.08,68.61 80.94,121.45l0 59.12 15.45 0 0 -59.12c0,-54.09 -29.52,-103.91 -77.03,-129.91z"/>
  <path class="fil1" d="M1110.86 205.52l199.52 0c8.56,0 15.46,0.82 20.36,2.41 4.65,1.53 8.25,3.48 10.63,5.72 2.28,2.18 3.74,4.62 4.48,7.57 0.99,3.63 1.45,7.49 1.45,11.58 0,4.05 -0.46,7.93 -1.42,11.54 -0.78,2.95 -2.24,5.41 -4.47,7.57 -2.42,2.28 -6.01,4.19 -10.63,5.72 -4.91,1.6 -11.79,2.42 -20.4,2.42l-199.52 0 0 -54.54zm254.56 115.69c12.87,-5.4 23.53,-12.68 31.67,-21.64 8.07,-8.88 14.03,-19.37 17.8,-31.23 3.63,-11.55 5.51,-24.16 5.51,-37.56 0,-13.37 -1.95,-26.19 -5.72,-38.09 -3.91,-12.22 -10.3,-22.95 -19.01,-31.91 -8.67,-8.91 -20.08,-16.1 -33.79,-21.28 -13.54,-5.16 -30.21,-7.75 -49.39,-7.75l-272.21 0 0 295.67 70.6 0 0 -96.12 121.1 0 129.91 96.12 116.01 0 -139.47 -98.89c10.02,-1.53 19.02,-3.95 27,-7.32z"/>
  <polygon class="fil1" points="1528.96,427.43 1896.65,427.43 1896.65,353.66 1599.53,353.66 1599.53,312.69 1860.66,312.69 1860.66,246.46 1599.53,246.46 1599.53,205.52 1896.65,205.52 1896.65,131.76 1528.96,131.76 "/>
  <path class="fil1" d="M2054.39 143.3c-20.18,7.68 -36.84,18.44 -49.57,31.88 -12.65,13.47 -21.96,29.45 -27.61,47.47 -5.58,17.7 -8.39,36.88 -8.39,56.96 0,20.04 2.81,39.19 8.39,56.89 5.65,18.05 14.96,34.04 27.61,47.47 12.72,13.47 29.38,24.2 49.57,31.95 20,7.63 44.66,11.51 73.27,11.51l220.06 0 0 -73.77 -220.06 0c-17.91,0 -32.51,-2.02 -43.38,-5.9 -10.63,-3.8 -19.12,-9.02 -25.23,-15.56 -6.04,-6.47 -10.19,-14.14 -12.4,-22.84 -2.31,-9.32 -3.48,-19.3 -3.48,-29.74 0,-10.44 1.18,-20.47 3.48,-29.77 2.21,-8.71 6.36,-16.39 12.4,-22.85 6.11,-6.54 14.6,-11.75 25.23,-15.56 10.87,-3.87 25.47,-5.89 43.38,-5.89l220.06 0 0 -73.77 -220.06 0c-28.56,0 -53.22,3.87 -73.27,11.54z"/>
  <path class="fil1" d="M2556.25 310.87l70.86 -103.51 71.17 103.51 -142.03 0zm37.42 -179.12l-204.09 295.67 86.83 0 34.37 -50.31 233.05 0 34.79 50.31 86.42 0 -204.1 -295.67 -67.26 0z"/>
  <path class="fil1" d="M2994.06 312.7l215.25 0c6.65,0 12.05,0.68 16.07,1.92 3.59,1.17 6.29,2.63 7.93,4.3 1.59,1.63 2.66,3.44 3.16,5.58 0.71,2.8 1.06,5.82 1.06,8.91 0,3.09 -0.31,5.97 -1.03,8.56 -0.49,2.02 -1.56,3.81 -3.19,5.44 -1.64,1.67 -4.34,3.09 -7.93,4.3 -4.02,1.28 -9.42,1.91 -16.07,1.91l-215.25 0 0 -40.93zm226.74 -95.51c0.63,2.59 1,5.47 1,8.56 0,3.12 -0.36,6.11 -1.04,8.88 -0.53,2.14 -1.56,3.98 -3.16,5.61 -1.7,1.71 -4.29,3.16 -7.82,4.3 -3.8,1.28 -9.13,1.92 -15.77,1.92l-199.94 0 0 -40.97 199.52 0c6.71,0 12.12,0.67 16.06,1.95 3.59,1.14 6.25,2.6 7.96,4.3 1.64,1.63 2.67,3.41 3.2,5.44zm48.57 54.93c7.14,-5.86 12.72,-12.83 16.74,-20.9 5.83,-11.82 8.77,-25.15 8.77,-39.58 0,-11.01 -1.42,-21.38 -4.19,-30.91 -2.95,-9.87 -7.96,-18.61 -14.89,-25.94 -6.89,-7.25 -15.92,-13.04 -26.83,-17.09 -10.69,-3.94 -23.77,-5.96 -38.83,-5.96l-286.69 0 0 295.7 301.57 0c15.66,0 29.21,-2.1 40.29,-6.22 11.34,-4.26 20.61,-10.26 27.58,-17.98 6.86,-7.6 11.87,-16.52 14.92,-26.54 2.95,-9.7 4.44,-20.21 4.44,-31.19 0,-18.37 -4.4,-34.65 -13.07,-48.47 -6.75,-10.77 -16.73,-19.12 -29.81,-24.91z"/>
  <polygon class="fil1" points="3472.81,131.74 3402.21,131.74 3402.21,427.42 3762.87,427.42 3762.87,353.65 3472.81,353.65 "/>
  <polygon class="fil1" points="4208.52,205.52 4208.52,131.76 3840.83,131.76 3840.83,427.43 4208.52,427.43 4208.52,353.66 3911.43,353.66 3911.43,312.72 4172.52,312.72 4172.52,246.46 3911.43,246.46 3911.43,205.52 "/>
 </g>
</svg>
